# xmcd CD database file
# Copyright (C) 1997 Ti Kan
# 
# Track frame offsets:
#     182
#     12410
#     24917
#     37400
#     50097
#     60405
#     72330
#     84772
#     98007
#     109805
#     120847
# 
# Disc length: 1784 seconds
# 
# Revision: 1
# Processed by: cddbd v1.4b41PL1 Copyright (c) Steve Scherf et al.
# Submitted via: DiscPlay 4.0.4
# 
DISCID=8506f60b
DTITLE=Mary Wells - Motown Legends
DYEAR=1900
DGENRE=
TTITLE0=You Beat Me To The Punch
TTITLE1=Two Lovers
TTITLE2=My Guy
TTITLE3=I Only Hasve Eyes For You
TTITLE4=I'll Still Be Around
TTITLE5=He's The One I Love
TTITLE6=Operator
TTITLE7=Laughing Boy
TTITLE8=Guess Who
TTITLE9=How? When My Heart Belongs To You
TTITLE10=Everybody Needs Love
EXTD=
EXTT0=
EXTT1=
EXTT2=
EXTT3=
EXTT4=
EXTT5=
EXTT6=
EXTT7=
EXTT8=
EXTT9=
EXTT10=
PLAYORDER=
